<svg width="64" height="193" viewBox="0 0 64 193" fill="none" xmlns="http://www.w3.org/2000/svg">
<path d="M0.671875 188.565L22 188.565L22 191.393L0.671875 191.393L0.671875 188.565ZM0.671874 175.426L12.4053 184.684L12.4053 189.693L10.0615 190.133L10.0615 186.368L0.671874 178.927L0.671874 175.426ZM22 178.268L12.0391 186.28L9.56348 184.698L22 174.811L22 178.268ZM14.251 173.785L13.9141 173.785C12.7715 173.785 11.7119 173.619 10.7354 173.287C9.74902 172.955 8.89453 172.477 8.17187 171.852C7.43945 171.227 6.87305 170.47 6.47266 169.581C6.0625 168.692 5.85742 167.696 5.85742 166.593C5.85742 165.479 6.0625 164.479 6.47265 163.59C6.87305 162.691 7.43945 161.93 8.17187 161.305C8.89453 160.67 9.74902 160.187 10.7354 159.854C11.7119 159.522 12.7715 159.356 13.9141 159.356L14.251 159.356C15.3936 159.356 16.4531 159.522 17.4297 159.854C18.4062 160.187 19.2607 160.67 19.9932 161.305C20.7158 161.93 21.2822 162.687 21.6924 163.575C22.0928 164.454 22.293 165.45 22.293 166.563C22.293 167.677 22.0928 168.678 21.6924 169.566C21.2822 170.455 20.7158 171.217 19.9932 171.852C19.2607 172.477 18.4062 172.955 17.4297 173.287C16.4531 173.619 15.3936 173.785 14.251 173.785ZM13.9141 171.075L14.251 171.075C15.042 171.075 15.7891 170.982 16.4922 170.797C17.1855 170.611 17.8008 170.333 18.3379 169.962C18.875 169.581 19.2998 169.107 19.6123 168.541C19.915 167.975 20.0664 167.315 20.0664 166.563C20.0664 165.821 19.915 165.172 19.6123 164.615C19.2998 164.049 18.875 163.58 18.3379 163.209C17.8008 162.838 17.1855 162.56 16.4922 162.374C15.7891 162.179 15.042 162.081 14.251 162.081L13.9141 162.081C13.1328 162.081 12.3955 162.179 11.7021 162.374C10.999 162.56 10.3789 162.843 9.8418 163.224C9.29492 163.595 8.86523 164.063 8.55273 164.63C8.24023 165.187 8.08398 165.841 8.08398 166.593C8.08398 167.335 8.24023 167.989 8.55273 168.556C8.86523 169.112 9.29492 169.581 9.8418 169.962C10.3789 170.333 10.999 170.611 11.7021 170.797C12.3955 170.982 13.1328 171.075 13.9141 171.075ZM6.15039 145.602L8.3916 145.602L8.3916 153.263L6.15039 153.263L6.15039 145.602ZM6.15039 143.214L22 143.214L22 145.924L6.15039 145.924L6.15039 143.214ZM6.15039 153.922L6.15039 151.197L13.7969 151.607C14.9785 151.676 16.0234 151.788 16.9316 151.944C17.8301 152.091 18.6016 152.296 19.2461 152.56C19.8906 152.813 20.418 153.136 20.8281 153.526C21.2285 153.907 21.5264 154.366 21.7217 154.903C21.9072 155.44 22 156.061 22 156.764L22 157.613L19.6123 157.613L19.5684 157.027C19.5391 156.607 19.4414 156.251 19.2754 155.958C19.1094 155.655 18.8652 155.401 18.543 155.196C18.2109 154.991 17.7861 154.825 17.2686 154.698C16.751 154.562 16.1357 154.459 15.4228 154.391C14.71 154.312 13.8799 154.254 12.9326 154.215L6.15039 153.922ZM6.15039 128.258L8.3916 128.258L8.3916 135.919L6.15039 135.919L6.15039 128.258ZM6.15039 125.87L22 125.87L22 128.58L6.15039 128.58L6.15039 125.87ZM6.15039 136.578L6.15039 133.854L13.7969 134.264C14.9785 134.332 16.0234 134.444 16.9316 134.601C17.8301 134.747 18.6016 134.952 19.2461 135.216C19.8906 135.47 20.418 135.792 20.8281 136.183C21.2285 136.563 21.5264 137.022 21.7217 137.56C21.9072 138.097 22 138.717 22 139.42L22 140.27L19.6123 140.27L19.5684 139.684C19.5391 139.264 19.4414 138.907 19.2754 138.614C19.1094 138.312 18.8652 138.058 18.543 137.853C18.2109 137.647 17.7861 137.481 17.2686 137.354C16.751 137.218 16.1357 137.115 15.4228 137.047C14.71 136.969 13.8799 136.91 12.9326 136.871L6.15039 136.578ZM22.293 114.928C22.293 116.031 22.1074 117.032 21.7363 117.931C21.3555 118.819 20.8232 119.586 20.1396 120.23C19.4561 120.865 18.6455 121.354 17.708 121.695C16.7705 122.037 15.7451 122.208 14.6318 122.208L14.0166 122.208C12.7275 122.208 11.5801 122.018 10.5742 121.637C9.55859 121.256 8.69922 120.738 7.99609 120.084C7.29297 119.43 6.76074 118.687 6.39941 117.857C6.03808 117.027 5.85742 116.168 5.85742 115.279C5.85742 114.146 6.05273 113.17 6.44336 112.35C6.83398 111.52 7.38086 110.841 8.08398 110.313C8.77734 109.786 9.59765 109.396 10.5449 109.142C11.4824 108.888 12.5078 108.761 13.6211 108.761L14.8369 108.761L14.8369 120.597L12.625 120.597L12.625 111.471L12.4199 111.471C11.7168 111.51 11.0332 111.656 10.3691 111.91C9.70507 112.154 9.1582 112.545 8.72851 113.082C8.29882 113.619 8.08398 114.352 8.08398 115.279C8.08398 115.895 8.21582 116.461 8.47949 116.979C8.7334 117.496 9.11425 117.94 9.62207 118.312C10.1299 118.683 10.75 118.971 11.4824 119.176C12.2148 119.381 13.0596 119.483 14.0166 119.483L14.6318 119.483C15.3838 119.483 16.0918 119.381 16.7559 119.176C17.4102 118.961 17.9863 118.653 18.4844 118.253C18.9824 117.843 19.373 117.35 19.6562 116.773C19.9394 116.187 20.0811 115.523 20.0811 114.781C20.0811 113.824 19.8857 113.014 19.4951 112.35C19.1045 111.686 18.582 111.104 17.9277 110.606L19.2314 108.966C19.749 109.308 20.2422 109.742 20.7109 110.27C21.1797 110.797 21.5605 111.446 21.8535 112.218C22.1465 112.979 22.293 113.883 22.293 114.928ZM6.15039 102.652L22 102.652L22 105.362L6.15039 105.362L6.15039 102.652ZM6.15039 92.252L15.2324 99.7666L15.2324 103.561L12.8594 103.971L12.8594 100.865L6.15039 95.5479L6.15039 92.252ZM22 95.167L14.8223 100.997L12.8594 99.2539L22 91.7246L22 95.167ZM22 89.1318L6.15039 89.1318L6.15039 86.4219L19.7734 86.4219L19.7734 79.127L6.15039 79.127L6.15039 76.4023L22 76.4023L22 89.1318ZM19.7734 74.5273L26.7021 74.791L26.7021 77.208L22 77.208L22 79.2734L19.7734 79.2734L19.7734 74.5273ZM17.708 68.6533L6.15038 61.3437L6.15038 58.6191L22 58.6191L22 61.3437L10.4424 61.3437L22 68.6533L22 71.3486L6.15039 71.3486L6.15039 68.6533L17.708 68.6533ZM14.4414 51.0605L14.4414 48.1309L22 52.7158L22 55.6455L14.4414 51.0605ZM6.15038 48.79L6.15038 42.1689L22 42.1689L22 44.8789L8.34765 44.8789L8.34765 48.79C8.34765 49.5615 8.47949 50.1914 8.74316 50.6797C8.99706 51.168 9.3291 51.5244 9.73925 51.749C10.1494 51.9736 10.5742 52.0859 11.0137 52.0859C11.4434 52.0859 11.8584 51.9834 12.2588 51.7783C12.6494 51.5732 12.9717 51.251 13.2256 50.8115C13.4795 50.3721 13.6064 49.8057 13.6064 49.1123L13.6064 44.1465L15.833 44.1465L15.833 49.1123C15.833 50.0205 15.7109 50.8262 15.4668 51.5293C15.2227 52.2324 14.8857 52.8281 14.456 53.3164C14.0166 53.8047 13.5039 54.1758 12.918 54.4297C12.3223 54.6836 11.6777 54.8105 10.9844 54.8105C10.291 54.8105 9.65136 54.6787 9.06542 54.415C8.47949 54.1416 7.96679 53.751 7.52734 53.2432C7.08788 52.7256 6.75097 52.0957 6.5166 51.3535C6.27245 50.6016 6.15038 49.7471 6.15038 48.79ZM13.0205 19.6104L15.2178 19.6104L15.2178 27.9893L13.0205 27.9893L13.0205 19.6104ZM6.15038 27.418L22 27.418L22 30.1279L6.15038 30.1279L6.15038 27.418ZM6.15038 17.4131L22 17.4131L22 20.1377L6.15038 20.1377L6.15038 17.4131ZM19.29 3.70215L11.1309 3.70215C10.5059 3.70215 9.96386 3.8291 9.50487 4.08301C9.03612 4.32715 8.6748 4.69824 8.42089 5.19629C8.16698 5.69434 8.04003 6.30957 8.04003 7.04199C8.04003 7.72559 8.15722 8.32617 8.39159 8.84375C8.62597 9.35156 8.93359 9.75195 9.31445 10.0449C9.6953 10.3281 10.1055 10.4697 10.5449 10.4697L10.5449 13.1797C9.97851 13.1797 9.41698 13.0332 8.86034 12.7402C8.3037 12.4473 7.80077 12.0273 7.35155 11.4805C6.89257 10.9238 6.53124 10.2598 6.26757 9.48828C5.99413 8.70703 5.85741 7.83789 5.85741 6.88086C5.85741 5.72852 6.05273 4.71289 6.44335 3.83398C6.83398 2.94531 7.4248 2.25195 8.21581 1.75391C8.99706 1.24609 9.97851 0.992187 11.1601 0.992187L18.543 0.992186C19.0703 0.992186 19.6318 0.948241 20.2275 0.86035C20.8232 0.762694 21.3359 0.621093 21.7656 0.435546L22 0.435546L22 3.26269C21.6875 3.39941 21.2725 3.50683 20.7549 3.58496C20.2275 3.66308 19.7392 3.70215 19.29 3.70215ZM12.3906 3.2334L14.2949 3.2041L14.2949 5.94336C14.2949 6.71484 14.3584 7.40332 14.4853 8.00879C14.6025 8.61426 14.7832 9.12207 15.0273 9.53223C15.2715 9.94238 15.5791 10.2549 15.9502 10.4697C16.3115 10.6846 16.7363 10.792 17.2246 10.792C17.7226 10.792 18.1767 10.6797 18.5869 10.4551C18.9971 10.2305 19.3242 9.89355 19.5684 9.44433C19.8027 8.98535 19.9199 8.42383 19.9199 7.75976C19.9199 6.92969 19.7441 6.19726 19.3926 5.5625C19.041 4.92773 18.6113 4.4248 18.1035 4.05371C17.5957 3.67285 17.1025 3.46777 16.624 3.43848L17.9277 2.28125C18.3379 2.34961 18.792 2.53516 19.29 2.83789C19.7881 3.14062 20.2666 3.5459 20.7256 4.05371C21.1748 4.55176 21.5508 5.14746 21.8535 5.84082C22.1465 6.52441 22.293 7.2959 22.293 8.15527C22.293 9.22949 22.083 10.1719 21.6631 10.9824C21.2432 11.7832 20.6816 12.4082 19.9785 12.8574C19.2656 13.2969 18.4697 13.5166 17.5908 13.5166C16.7412 13.5166 15.9941 13.3506 15.3496 13.0186C14.6953 12.6865 14.1533 12.208 13.7236 11.583C13.2842 10.958 12.9521 10.2061 12.7275 9.32715C12.5029 8.44824 12.3906 7.4668 12.3906 6.38281L12.3906 3.2334ZM35.6719 190.089L35.6719 186.368L51.3311 180.89L35.6719 175.411L35.6719 171.69L57 179.396L57 182.384L35.6719 190.089ZM35.6719 192.096L35.6719 188.39L50.9355 187.716L57 187.716L57 192.096L35.6719 192.096ZM35.6719 173.39L35.6719 169.669L57 169.669L57 174.063L50.9355 174.063L35.6719 173.39ZM53.4258 157.525L46.3652 157.525C45.8574 157.525 45.4228 157.608 45.0615 157.774C44.6904 157.94 44.4023 158.199 44.1973 158.551C43.9922 158.893 43.8896 159.337 43.8896 159.884C43.8896 160.353 43.9727 160.758 44.1387 161.1C44.2949 161.441 44.5244 161.705 44.8271 161.891C45.1201 162.076 45.4668 162.169 45.8672 162.169L45.8672 166.388C45.1934 166.388 44.5537 166.231 43.9482 165.919C43.3428 165.606 42.8105 165.152 42.3516 164.557C41.8828 163.961 41.5166 163.253 41.2529 162.433C40.9893 161.603 40.8574 160.675 40.8574 159.649C40.8574 158.419 41.0625 157.325 41.4727 156.368C41.8828 155.411 42.498 154.659 43.3184 154.112C44.1387 153.556 45.1641 153.277 46.3945 153.277L53.1768 153.277C54.0459 153.277 54.7588 153.224 55.3154 153.116C55.8623 153.009 56.3408 152.853 56.751 152.647L57 152.647L57 156.91C56.5703 157.115 56.0332 157.271 55.3887 157.379C54.7344 157.477 54.0801 157.525 53.4258 157.525ZM47.3467 156.969L49.7344 156.939L49.7344 159.298C49.7344 159.854 49.7979 160.338 49.9248 160.748C50.0518 161.158 50.2324 161.495 50.4668 161.759C50.6914 162.022 50.9551 162.218 51.2578 162.345C51.5605 162.462 51.8926 162.521 52.2539 162.521C52.6152 162.521 52.9424 162.437 53.2354 162.271C53.5186 162.105 53.7432 161.866 53.9092 161.554C54.0654 161.241 54.1436 160.875 54.1436 160.455C54.1436 159.82 54.0166 159.269 53.7627 158.8C53.5088 158.331 53.1963 157.97 52.8252 157.716C52.4541 157.452 52.1025 157.315 51.7705 157.306L53.5576 156.192C53.958 156.349 54.373 156.563 54.8027 156.837C55.2324 157.101 55.6377 157.437 56.0186 157.848C56.3896 158.258 56.6973 158.751 56.9414 159.327C57.1758 159.903 57.293 160.587 57.293 161.378C57.293 162.384 57.0928 163.297 56.6924 164.117C56.2822 164.928 55.7207 165.572 55.0078 166.051C54.2852 166.52 53.4648 166.754 52.5469 166.754C51.7168 166.754 50.9795 166.598 50.335 166.285C49.6904 165.973 49.1484 165.514 48.709 164.908C48.2598 164.293 47.9229 163.526 47.6982 162.608C47.4639 161.69 47.3467 160.626 47.3467 159.415L47.3467 156.969ZM41.1504 139.991L41.1504 136.168L56.4727 136.168C57.918 136.168 59.1436 136.49 60.1494 137.135C61.165 137.77 61.9316 138.658 62.4492 139.801C62.9766 140.943 63.2402 142.271 63.2402 143.785C63.2402 144.449 63.1523 145.152 62.9766 145.895C62.8008 146.627 62.5273 147.33 62.1562 148.004C61.7852 148.668 61.3164 149.225 60.75 149.674L58.2598 147.813C58.8262 147.325 59.2656 146.759 59.5781 146.114C59.9004 145.47 60.0615 144.757 60.0615 143.976C60.0615 143.214 59.9199 142.569 59.6367 142.042C59.3633 141.515 58.958 141.109 58.4209 140.826C57.8936 140.543 57.2539 140.401 56.502 140.401L44.8125 140.401L41.1504 139.991ZM49.2656 150.655L48.958 150.655C47.7471 150.655 46.6484 150.509 45.6621 150.216C44.666 149.913 43.8115 149.488 43.0986 148.941C42.3857 148.385 41.834 147.711 41.4434 146.92C41.0527 146.129 40.8574 145.235 40.8574 144.239C40.8574 143.185 41.0527 142.301 41.4434 141.588C41.834 140.875 42.3906 140.289 43.1133 139.83C43.8262 139.371 44.6709 139.015 45.6475 138.761C46.6143 138.497 47.6738 138.292 48.8262 138.146L49.5 138.146C50.6035 138.292 51.6289 138.512 52.5762 138.805C53.5234 139.098 54.3535 139.483 55.0664 139.962C55.7695 140.44 56.3164 141.036 56.707 141.749C57.0977 142.452 57.293 143.292 57.293 144.269C57.293 145.245 57.0928 146.129 56.6924 146.92C56.292 147.701 55.7305 148.37 55.0078 148.927C54.2852 149.483 53.4355 149.913 52.459 150.216C51.4824 150.509 50.418 150.655 49.2656 150.655ZM48.958 146.437L49.2656 146.437C49.9199 146.437 50.5303 146.373 51.0967 146.246C51.6631 146.119 52.166 145.924 52.6055 145.66C53.0352 145.387 53.3721 145.05 53.6162 144.649C53.8506 144.239 53.9678 143.756 53.9678 143.199C53.9678 142.428 53.8066 141.798 53.4844 141.31C53.1523 140.821 52.6982 140.455 52.1221 140.211C51.5459 139.967 50.8818 139.825 50.1299 139.786L48.2109 139.786C47.5957 139.806 47.0439 139.889 46.5557 140.035C46.0576 140.182 45.6328 140.387 45.2812 140.65C44.9297 140.914 44.6562 141.256 44.4609 141.676C44.2656 142.096 44.168 142.594 44.168 143.17C44.168 143.727 44.2949 144.21 44.5488 144.62C44.793 145.021 45.1299 145.357 45.5596 145.631C45.9893 145.895 46.4971 146.095 47.083 146.231C47.6592 146.368 48.2842 146.437 48.958 146.437ZM41.1504 128.434L57 128.434L57 132.667L41.1504 132.667L41.1504 128.434ZM37.0195 132.931C36.4043 132.931 35.8965 132.716 35.4961 132.286C35.0957 131.856 34.8955 131.28 34.8955 130.558C34.8955 129.845 35.0957 129.273 35.4961 128.844C35.8965 128.404 36.4043 128.185 37.0195 128.185C37.6348 128.185 38.1426 128.404 38.543 128.844C38.9434 129.273 39.1436 129.845 39.1436 130.558C39.1436 131.28 38.9434 131.856 38.543 132.286C38.1426 132.716 37.6348 132.931 37.0195 132.931ZM53.9971 118.399C53.9971 117.882 53.8994 117.423 53.7041 117.022C53.499 116.622 53.2158 116.31 52.8545 116.085C52.4834 115.851 52.0488 115.729 51.5508 115.719L51.5508 111.749C52.6641 111.759 53.6553 112.057 54.5244 112.643C55.3838 113.229 56.0625 114.015 56.5605 115.001C57.0488 115.987 57.293 117.091 57.293 118.312C57.293 119.542 57.0879 120.616 56.6777 121.534C56.2676 122.442 55.7012 123.199 54.9785 123.805C54.2461 124.41 53.3965 124.864 52.4297 125.167C51.4531 125.47 50.4082 125.621 49.2949 125.621L48.8701 125.621C47.7471 125.621 46.7021 125.47 45.7353 125.167C44.7588 124.864 43.9092 124.41 43.1865 123.805C42.4541 123.199 41.8828 122.442 41.4727 121.534C41.0625 120.626 40.8574 119.562 40.8574 118.341C40.8574 117.042 41.1064 115.904 41.6045 114.928C42.1025 113.941 42.8154 113.17 43.7432 112.613C44.6611 112.047 45.75 111.759 47.0098 111.749L47.0098 115.719C46.4824 115.729 46.0039 115.841 45.5742 116.056C45.1445 116.261 44.8027 116.563 44.5488 116.964C44.2852 117.354 44.1533 117.838 44.1533 118.414C44.1533 119.029 44.2852 119.532 44.5488 119.923C44.8027 120.313 45.1543 120.616 45.6035 120.831C46.043 121.046 46.5459 121.197 47.1123 121.285C47.6689 121.363 48.2549 121.402 48.8701 121.402L49.2949 121.402C49.9102 121.402 50.501 121.363 51.0674 121.285C51.6338 121.207 52.1367 121.061 52.5762 120.846C53.0156 120.621 53.3623 120.313 53.6162 119.923C53.8701 119.532 53.9971 119.024 53.9971 118.399ZM53.5723 87.2568L57 87.2568L57 98.6094L53.5723 98.6094L53.5723 87.2568ZM35.6719 97.1738L57 97.1738L57 101.568L35.6719 101.568L35.6719 97.1738ZM44.3584 88.7363L47.6982 88.7363L47.6982 98.6094L44.3584 98.6094L44.3584 88.7363ZM35.6719 87.2715L39.1143 87.2715L39.1143 98.6094L35.6719 98.6094L35.6719 87.2715ZM53.543 75.8896L34.5 75.8896L34.5 71.6416L57 71.6416L57 75.4648L53.543 75.8896ZM49.2656 85.9092L48.958 85.9092C47.7471 85.9092 46.6484 85.7725 45.6621 85.499C44.666 85.2256 43.8115 84.8252 43.0986 84.2978C42.3857 83.7705 41.834 83.1211 41.4434 82.3496C41.0527 81.5781 40.8574 80.6992 40.8574 79.7129C40.8574 78.7852 41.0527 77.9746 41.4434 77.2812C41.834 76.5781 42.3906 75.9824 43.1133 75.4941C43.8262 74.9961 44.6709 74.5957 45.6475 74.293C46.6143 73.9902 47.6738 73.7705 48.8262 73.6338L49.5 73.6338C50.6035 73.7705 51.6289 73.9902 52.5762 74.293C53.5234 74.5957 54.3535 74.9961 55.0664 75.4941C55.7695 75.9824 56.3164 76.5781 56.707 77.2812C57.0977 77.9844 57.293 78.8047 57.293 79.7422C57.293 80.7285 57.0928 81.6074 56.6924 82.3789C56.292 83.1406 55.7305 83.7852 55.0078 84.3125C54.2852 84.8301 53.4355 85.2256 52.459 85.499C51.4824 85.7725 50.418 85.9092 49.2656 85.9092ZM48.958 81.6904L49.2656 81.6904C49.9199 81.6904 50.5303 81.6416 51.0967 81.5439C51.6631 81.4365 52.166 81.2656 52.6055 81.0312C53.0352 80.7871 53.3721 80.4746 53.6162 80.0937C53.8506 79.7031 53.9678 79.2295 53.9678 78.6728C53.9678 77.9502 53.8066 77.3545 53.4844 76.8857C53.1523 76.417 52.6982 76.0605 52.1221 75.8164C51.5459 75.5625 50.8818 75.416 50.1299 75.377L48.2109 75.377C47.5957 75.4062 47.0439 75.4941 46.5557 75.6406C46.0576 75.7773 45.6328 75.9824 45.2812 76.2559C44.9297 76.5195 44.6562 76.8516 44.4609 77.252C44.2656 77.6426 44.168 78.1064 44.168 78.6436C44.168 79.1904 44.2949 79.6592 44.5488 80.0498C44.793 80.4404 45.1299 80.7578 45.5596 81.002C45.9893 81.2363 46.4971 81.4121 47.083 81.5293C47.6592 81.6367 48.2842 81.6904 48.958 81.6904ZM57.293 61.0508C57.293 62.2812 57.0977 63.3848 56.707 64.3613C56.3066 65.3379 55.7549 66.168 55.0518 66.8516C54.3486 67.5254 53.5332 68.043 52.6055 68.4043C51.668 68.7656 50.6719 68.9463 49.6172 68.9463L49.0312 68.9463C47.8301 68.9463 46.7314 68.7754 45.7353 68.4336C44.7393 68.0918 43.875 67.6035 43.1426 66.9687C42.4102 66.3242 41.8486 65.543 41.458 64.625C41.0576 63.707 40.8574 62.6719 40.8574 61.5195C40.8574 60.3965 41.043 59.4004 41.4141 58.5312C41.7852 57.6621 42.3125 56.9346 42.9961 56.3486C43.6797 55.7529 44.5 55.3037 45.457 55.001C46.4043 54.6982 47.459 54.5469 48.6211 54.5469L50.3789 54.5469L50.3789 67.1445L47.5664 67.1445L47.5664 58.6924L47.2441 58.6924C46.6582 58.6924 46.1357 58.7998 45.6768 59.0146C45.208 59.2197 44.8369 59.5322 44.5635 59.9521C44.29 60.3721 44.1533 60.9092 44.1533 61.5635C44.1533 62.1201 44.2754 62.5986 44.5195 62.999C44.7637 63.3994 45.1055 63.7266 45.5449 63.9805C45.9844 64.2246 46.5019 64.4102 47.0977 64.5371C47.6836 64.6543 48.3281 64.7129 49.0312 64.7129L49.6172 64.7129C50.2519 64.7129 50.8379 64.625 51.375 64.4492C51.9121 64.2637 52.376 64.0049 52.7666 63.6728C53.1572 63.3311 53.46 62.9209 53.6748 62.4424C53.8896 61.9541 53.9971 61.4023 53.9971 60.7871C53.9971 60.0254 53.8506 59.3174 53.5576 58.6631C53.2549 57.999 52.8008 57.4277 52.1953 56.9492L54.4219 54.8984C54.9004 55.2305 55.3594 55.6846 55.7988 56.2607C56.2383 56.8271 56.5996 57.5107 56.8828 58.3115C57.1562 59.1123 57.293 60.0254 57.293 61.0508ZM44.5342 48.0137L57 48.0137L57 52.2324L41.1504 52.2324L41.1504 48.2773L44.5342 48.0137ZM48.5185 48.6289L48.5185 49.7715C47.3467 49.7715 46.292 49.6201 45.3545 49.3174C44.4072 49.0146 43.6016 48.5898 42.9375 48.043C42.2637 47.4961 41.751 46.8467 41.3994 46.0947C41.0381 45.333 40.8574 44.4834 40.8574 43.5459C40.8574 42.8037 40.9648 42.125 41.1797 41.5098C41.3945 40.8945 41.7363 40.3672 42.2051 39.9277C42.6738 39.4785 43.2939 39.1367 44.0654 38.9023C44.8369 38.6582 45.7793 38.5361 46.8926 38.5361L57 38.5361L57 42.7842L46.8779 42.7842C46.1748 42.7842 45.6279 42.8818 45.2373 43.0771C44.8467 43.2725 44.5732 43.5605 44.417 43.9414C44.251 44.3125 44.168 44.7715 44.168 45.3184C44.168 45.8848 44.2803 46.3779 44.5049 46.7978C44.7295 47.208 45.042 47.5498 45.4424 47.8232C45.833 48.0869 46.292 48.2871 46.8193 48.4238C47.3467 48.5605 47.9131 48.6289 48.5185 48.6289Z" fill="black"/>
</svg>
