<svg width="256" height="93" viewBox="0 0 256 93" fill="none" xmlns="http://www.w3.org/2000/svg">
<g filter="url(#filter0_d_11_34)">
<path d="M31.9922 0.5625V29H28.2227V0.5625H31.9922ZM49.5117 0.5625L37.168 16.207H30.4883L29.9023 13.082H34.9219L44.8438 0.5625H49.5117ZM45.7227 29L35.0391 15.7188L37.1484 12.418L50.332 29H45.7227ZM51.6992 18.668V18.2188C51.6992 16.6953 51.9206 15.2826 52.3633 13.9805C52.806 12.6654 53.444 11.526 54.2773 10.5625C55.1107 9.58594 56.1198 8.83073 57.3047 8.29688C58.4896 7.75 59.8177 7.47656 61.2891 7.47656C62.7734 7.47656 64.1081 7.75 65.293 8.29688C66.4909 8.83073 67.5065 9.58594 68.3398 10.5625C69.1862 11.526 69.8307 12.6654 70.2734 13.9805C70.7161 15.2826 70.9375 16.6953 70.9375 18.2188V18.668C70.9375 20.1914 70.7161 21.6042 70.2734 22.9062C69.8307 24.2083 69.1862 25.3477 68.3398 26.3242C67.5065 27.2878 66.4974 28.043 65.3125 28.5898C64.1406 29.1237 62.8125 29.3906 61.3281 29.3906C59.8438 29.3906 58.5091 29.1237 57.3242 28.5898C56.1393 28.043 55.1237 27.2878 54.2773 26.3242C53.444 25.3477 52.806 24.2083 52.3633 22.9062C51.9206 21.6042 51.6992 20.1914 51.6992 18.668ZM55.3125 18.2188V18.668C55.3125 19.7227 55.4362 20.7188 55.6836 21.6562C55.931 22.5807 56.3021 23.401 56.7969 24.1172C57.3047 24.8333 57.9362 25.3997 58.6914 25.8164C59.4466 26.2201 60.3255 26.4219 61.3281 26.4219C62.3177 26.4219 63.1836 26.2201 63.9258 25.8164C64.681 25.3997 65.306 24.8333 65.8008 24.1172C66.2956 23.401 66.6667 22.5807 66.9141 21.6562C67.1745 20.7188 67.3047 19.7227 67.3047 18.668V18.2188C67.3047 17.1771 67.1745 16.194 66.9141 15.2695C66.6667 14.332 66.2891 13.5052 65.7812 12.7891C65.2865 12.0599 64.6615 11.487 63.9062 11.0703C63.1641 10.6536 62.2917 10.4453 61.2891 10.4453C60.2995 10.4453 59.4271 10.6536 58.6719 11.0703C57.9297 11.487 57.3047 12.0599 56.7969 12.7891C56.3021 13.5052 55.931 14.332 55.6836 15.2695C55.4362 16.194 55.3125 17.1771 55.3125 18.2188ZM89.2773 7.86719V10.8555H79.0625V7.86719H89.2773ZM92.4609 7.86719V29H88.8477V7.86719H92.4609ZM78.1836 7.86719H81.8164L81.2695 18.0625C81.1784 19.638 81.0286 21.0312 80.8203 22.2422C80.625 23.4401 80.3516 24.4688 80 25.3281C79.6615 26.1875 79.2318 26.8906 78.7109 27.4375C78.2031 27.9714 77.5911 28.3685 76.875 28.6289C76.1589 28.8763 75.332 29 74.3945 29H73.2617V25.8164L74.043 25.7578C74.6029 25.7188 75.0781 25.5885 75.4688 25.3672C75.8724 25.1458 76.2109 24.8203 76.4844 24.3906C76.7578 23.9479 76.9792 23.3815 77.1484 22.6914C77.3307 22.0013 77.4674 21.181 77.5586 20.2305C77.6628 19.2799 77.7409 18.1732 77.793 16.9102L78.1836 7.86719ZM112.402 7.86719V10.8555H102.188V7.86719H112.402ZM115.586 7.86719V29H111.973V7.86719H115.586ZM101.309 7.86719H104.941L104.395 18.0625C104.303 19.638 104.154 21.0312 103.945 22.2422C103.75 23.4401 103.477 24.4688 103.125 25.3281C102.786 26.1875 102.357 26.8906 101.836 27.4375C101.328 27.9714 100.716 28.3685 100 28.6289C99.2839 28.8763 98.457 29 97.5195 29H96.3867V25.8164L97.168 25.7578C97.7279 25.7188 98.2031 25.5885 98.5938 25.3672C98.9974 25.1458 99.3359 24.8203 99.6094 24.3906C99.8828 23.9479 100.104 23.3815 100.273 22.6914C100.456 22.0013 100.592 21.181 100.684 20.2305C100.788 19.2799 100.866 18.1732 100.918 16.9102L101.309 7.86719ZM130.176 29.3906C128.704 29.3906 127.37 29.1432 126.172 28.6484C124.987 28.1406 123.965 27.431 123.105 26.5195C122.259 25.6081 121.608 24.5273 121.152 23.2773C120.697 22.0273 120.469 20.6602 120.469 19.1758V18.3555C120.469 16.6367 120.723 15.1068 121.23 13.7656C121.738 12.4115 122.428 11.2656 123.301 10.3281C124.173 9.39062 125.163 8.68099 126.27 8.19922C127.376 7.71745 128.522 7.47656 129.707 7.47656C131.217 7.47656 132.52 7.73698 133.613 8.25781C134.72 8.77865 135.625 9.50781 136.328 10.4453C137.031 11.3698 137.552 12.4635 137.891 13.7266C138.229 14.9766 138.398 16.3438 138.398 17.8281V19.4492H122.617V16.5H134.785V16.2266C134.733 15.2891 134.538 14.3776 134.199 13.4922C133.874 12.6068 133.353 11.8776 132.637 11.3047C131.921 10.7318 130.944 10.4453 129.707 10.4453C128.887 10.4453 128.132 10.6211 127.441 10.9727C126.751 11.3112 126.159 11.819 125.664 12.4961C125.169 13.1732 124.785 14 124.512 14.9766C124.238 15.9531 124.102 17.0794 124.102 18.3555V19.1758C124.102 20.1784 124.238 21.1224 124.512 22.0078C124.798 22.8802 125.208 23.6484 125.742 24.3125C126.289 24.9766 126.947 25.4974 127.715 25.875C128.496 26.2526 129.382 26.4414 130.371 26.4414C131.647 26.4414 132.728 26.181 133.613 25.6602C134.499 25.1393 135.273 24.4427 135.938 23.5703L138.125 25.3086C137.669 25.9987 137.09 26.6562 136.387 27.2812C135.684 27.9062 134.818 28.4141 133.789 28.8047C132.773 29.1953 131.569 29.3906 130.176 29.3906ZM146.543 7.86719V29H142.93V7.86719H146.543ZM160.41 7.86719L150.391 19.9766H145.332L144.785 16.8125H148.926L156.016 7.86719H160.41ZM156.523 29L148.75 19.4297L151.074 16.8125L161.113 29H156.523ZM164.57 29V7.86719H168.184V26.0312H177.91V7.86719H181.543V29H164.57ZM184.043 26.0312L183.691 35.2695H180.469V29H177.715V26.0312H184.043ZM191.875 23.2773L201.621 7.86719H205.254V29H201.621V13.5898L191.875 29H188.281V7.86719H191.875V23.2773ZM215.332 18.9219H219.238L213.125 29H209.219L215.332 18.9219ZM218.359 7.86719H227.188V29H223.574V10.7969H218.359C217.331 10.7969 216.491 10.9727 215.84 11.3242C215.189 11.6628 214.714 12.1055 214.414 12.6523C214.115 13.1992 213.965 13.7656 213.965 14.3516C213.965 14.9245 214.102 15.4779 214.375 16.0117C214.648 16.5326 215.078 16.9622 215.664 17.3008C216.25 17.6393 217.005 17.8086 217.93 17.8086H224.551V20.7773H217.93C216.719 20.7773 215.645 20.6146 214.707 20.2891C213.77 19.9635 212.975 19.5143 212.324 18.9414C211.673 18.3555 211.178 17.6719 210.84 16.8906C210.501 16.0964 210.332 15.237 210.332 14.3125C210.332 13.388 210.508 12.5352 210.859 11.7539C211.224 10.9727 211.745 10.2891 212.422 9.70312C213.112 9.11719 213.952 8.66797 214.941 8.35547C215.944 8.02995 217.083 7.86719 218.359 7.86719ZM18.5742 64.0273V66.957H7.40234V64.0273H18.5742ZM8.16406 54.8672V76H4.55078V54.8672H8.16406ZM21.5039 54.8672V76H17.8711V54.8672H21.5039ZM39.7852 72.3867V61.5078C39.7852 60.6745 39.6159 59.9518 39.2773 59.3398C38.9518 58.7148 38.457 58.2331 37.793 57.8945C37.1289 57.556 36.3086 57.3867 35.332 57.3867C34.4206 57.3867 33.6198 57.543 32.9297 57.8555C32.2526 58.168 31.7188 58.5781 31.3281 59.0859C30.9505 59.5938 30.7617 60.1406 30.7617 60.7266H27.1484C27.1484 59.9714 27.3438 59.2227 27.7344 58.4805C28.125 57.7383 28.6849 57.0677 29.4141 56.4688C30.1562 55.8568 31.0417 55.375 32.0703 55.0234C33.112 54.6589 34.2708 54.4766 35.5469 54.4766C37.0833 54.4766 38.4375 54.737 39.6094 55.2578C40.7943 55.7786 41.7188 56.5664 42.3828 57.6211C43.0599 58.6628 43.3984 59.9714 43.3984 61.5469V71.3906C43.3984 72.0938 43.457 72.8424 43.5742 73.6367C43.7044 74.431 43.8932 75.1146 44.1406 75.6875V76H40.3711C40.1888 75.5833 40.0456 75.0299 39.9414 74.3398C39.8372 73.6367 39.7852 72.9857 39.7852 72.3867ZM40.4102 63.1875L40.4492 65.7266H36.7969C35.7682 65.7266 34.8503 65.8112 34.043 65.9805C33.2357 66.1367 32.5586 66.3776 32.0117 66.7031C31.4648 67.0286 31.0482 67.4388 30.7617 67.9336C30.4753 68.4154 30.332 68.9818 30.332 69.6328C30.332 70.2969 30.4818 70.9023 30.7812 71.4492C31.0807 71.9961 31.5299 72.4323 32.1289 72.7578C32.7409 73.0703 33.4896 73.2266 34.375 73.2266C35.4818 73.2266 36.4583 72.9922 37.3047 72.5234C38.151 72.0547 38.8216 71.4818 39.3164 70.8047C39.8242 70.1276 40.0977 69.4701 40.1367 68.832L41.6797 70.5703C41.5885 71.1172 41.3411 71.7227 40.9375 72.3867C40.5339 73.0508 39.9935 73.6888 39.3164 74.3008C38.6523 74.8997 37.8581 75.401 36.9336 75.8047C36.0221 76.1953 34.9935 76.3906 33.8477 76.3906C32.4154 76.3906 31.1589 76.1107 30.0781 75.5508C29.0104 74.9909 28.1771 74.2422 27.5781 73.3047C26.9922 72.3542 26.6992 71.293 26.6992 70.1211C26.6992 68.9883 26.9206 67.9922 27.3633 67.1328C27.806 66.2604 28.444 65.5378 29.2773 64.9648C30.1107 64.3789 31.1133 63.9362 32.2852 63.6367C33.457 63.3372 34.7656 63.1875 36.2109 63.1875H40.4102ZM61.5039 47.5625H66.4648L73.7695 68.4414L81.0742 47.5625H86.0352L75.7617 76H71.7773L61.5039 47.5625ZM58.8281 47.5625H63.7695L64.668 67.9141V76H58.8281V47.5625ZM83.7695 47.5625H88.7305V76H82.8711V67.9141L83.7695 47.5625ZM104.922 71.2344V61.8203C104.922 61.1432 104.811 60.5638 104.59 60.082C104.368 59.5872 104.023 59.2031 103.555 58.9297C103.099 58.6562 102.507 58.5195 101.777 58.5195C101.152 58.5195 100.612 58.6302 100.156 58.8516C99.7005 59.0599 99.349 59.3659 99.1016 59.7695C98.8542 60.1602 98.7305 60.6224 98.7305 61.1562H93.1055C93.1055 60.2578 93.3138 59.4049 93.7305 58.5977C94.1471 57.7904 94.7526 57.0807 95.5469 56.4688C96.3411 55.8438 97.2852 55.3555 98.3789 55.0039C99.4857 54.6523 100.723 54.4766 102.09 54.4766C103.73 54.4766 105.189 54.75 106.465 55.2969C107.741 55.8438 108.743 56.6641 109.473 57.7578C110.215 58.8516 110.586 60.2188 110.586 61.8594V70.9023C110.586 72.0612 110.658 73.0117 110.801 73.7539C110.944 74.4831 111.152 75.1211 111.426 75.668V76H105.742C105.469 75.4271 105.26 74.7109 105.117 73.8516C104.987 72.9792 104.922 72.1068 104.922 71.2344ZM105.664 63.1289L105.703 66.3125H102.559C101.816 66.3125 101.172 66.3971 100.625 66.5664C100.078 66.7357 99.6289 66.9766 99.2773 67.2891C98.9258 67.5885 98.6654 67.9401 98.4961 68.3438C98.3398 68.7474 98.2617 69.1901 98.2617 69.6719C98.2617 70.1536 98.3724 70.5898 98.5938 70.9805C98.8151 71.3581 99.1341 71.6576 99.5508 71.8789C99.9674 72.0872 100.456 72.1914 101.016 72.1914C101.862 72.1914 102.598 72.0221 103.223 71.6836C103.848 71.3451 104.329 70.9284 104.668 70.4336C105.02 69.9388 105.202 69.4701 105.215 69.0273L106.699 71.4102C106.491 71.944 106.204 72.4974 105.84 73.0703C105.488 73.6432 105.039 74.1836 104.492 74.6914C103.945 75.1862 103.288 75.5964 102.52 75.9219C101.751 76.2344 100.84 76.3906 99.7852 76.3906C98.444 76.3906 97.2266 76.1237 96.1328 75.5898C95.0521 75.043 94.1927 74.2943 93.5547 73.3438C92.9297 72.3802 92.6172 71.2865 92.6172 70.0625C92.6172 68.9557 92.8255 67.9727 93.2422 67.1133C93.6589 66.2539 94.2708 65.5312 95.0781 64.9453C95.8984 64.3464 96.9206 63.8971 98.1445 63.5977C99.3685 63.2852 100.788 63.1289 102.402 63.1289H105.664ZM128.301 54.8672H133.398V75.2969C133.398 77.224 132.969 78.8581 132.109 80.1992C131.263 81.5534 130.078 82.5755 128.555 83.2656C127.031 83.9688 125.26 84.3203 123.242 84.3203C122.357 84.3203 121.419 84.2031 120.43 83.9688C119.453 83.7344 118.516 83.3698 117.617 82.875C116.732 82.3802 115.99 81.7552 115.391 81L117.871 77.6797C118.522 78.4349 119.277 79.0208 120.137 79.4375C120.996 79.8672 121.947 80.082 122.988 80.082C124.004 80.082 124.863 79.8932 125.566 79.5156C126.27 79.151 126.81 78.6107 127.188 77.8945C127.565 77.1914 127.754 76.3385 127.754 75.3359V59.75L128.301 54.8672ZM114.082 65.6875V65.2773C114.082 63.6628 114.277 62.1979 114.668 60.8828C115.072 59.5547 115.638 58.4154 116.367 57.4648C117.109 56.5143 118.008 55.7786 119.062 55.2578C120.117 54.737 121.309 54.4766 122.637 54.4766C124.043 54.4766 125.221 54.737 126.172 55.2578C127.122 55.7786 127.904 56.5208 128.516 57.4844C129.128 58.4349 129.603 59.5612 129.941 60.8633C130.293 62.1523 130.566 63.5651 130.762 65.1016V66C130.566 67.4714 130.273 68.8385 129.883 70.1016C129.492 71.3646 128.978 72.4714 128.34 73.4219C127.702 74.3594 126.908 75.0885 125.957 75.6094C125.02 76.1302 123.9 76.3906 122.598 76.3906C121.296 76.3906 120.117 76.1237 119.062 75.5898C118.021 75.056 117.129 74.3073 116.387 73.3438C115.645 72.3802 115.072 71.2474 114.668 69.9453C114.277 68.6432 114.082 67.224 114.082 65.6875ZM119.707 65.2773V65.6875C119.707 66.5599 119.792 67.3737 119.961 68.1289C120.13 68.8841 120.391 69.5547 120.742 70.1406C121.107 70.7135 121.556 71.1628 122.09 71.4883C122.637 71.8008 123.281 71.957 124.023 71.957C125.052 71.957 125.892 71.7422 126.543 71.3125C127.194 70.8698 127.682 70.2643 128.008 69.4961C128.333 68.7279 128.522 67.8424 128.574 66.8398V64.2812C128.548 63.4609 128.438 62.7253 128.242 62.0742C128.047 61.4102 127.773 60.8438 127.422 60.375C127.07 59.9062 126.615 59.5417 126.055 59.2812C125.495 59.0208 124.831 58.8906 124.062 58.8906C123.32 58.8906 122.676 59.0599 122.129 59.3984C121.595 59.724 121.146 60.1732 120.781 60.7461C120.43 61.319 120.163 61.9961 119.98 62.7773C119.798 63.5456 119.707 64.3789 119.707 65.2773ZM143.711 54.8672V76H138.066V54.8672H143.711ZM137.715 49.3594C137.715 48.5391 138.001 47.862 138.574 47.3281C139.147 46.7943 139.915 46.5273 140.879 46.5273C141.829 46.5273 142.591 46.7943 143.164 47.3281C143.75 47.862 144.043 48.5391 144.043 49.3594C144.043 50.1797 143.75 50.8568 143.164 51.3906C142.591 51.9245 141.829 52.1914 140.879 52.1914C139.915 52.1914 139.147 51.9245 138.574 51.3906C138.001 50.8568 137.715 50.1797 137.715 49.3594ZM157.09 71.9961C157.78 71.9961 158.392 71.8659 158.926 71.6055C159.46 71.332 159.876 70.9544 160.176 70.4727C160.488 69.9779 160.651 69.3984 160.664 68.7344H165.957C165.944 70.2188 165.547 71.5404 164.766 72.6992C163.984 73.8451 162.936 74.75 161.621 75.4141C160.306 76.0651 158.835 76.3906 157.207 76.3906C155.566 76.3906 154.134 76.1172 152.91 75.5703C151.699 75.0234 150.69 74.2682 149.883 73.3047C149.076 72.3281 148.47 71.1953 148.066 69.9062C147.663 68.6042 147.461 67.2109 147.461 65.7266V65.1602C147.461 63.6628 147.663 62.2695 148.066 60.9805C148.47 59.6784 149.076 58.5456 149.883 57.582C150.69 56.6055 151.699 55.8438 152.91 55.2969C154.121 54.75 155.54 54.4766 157.168 54.4766C158.9 54.4766 160.417 54.8086 161.719 55.4727C163.034 56.1367 164.062 57.0872 164.805 58.3242C165.56 59.5482 165.944 61 165.957 62.6797H160.664C160.651 61.9766 160.501 61.3385 160.215 60.7656C159.941 60.1927 159.538 59.737 159.004 59.3984C158.483 59.0469 157.839 58.8711 157.07 58.8711C156.25 58.8711 155.579 59.0469 155.059 59.3984C154.538 59.737 154.134 60.2057 153.848 60.8047C153.561 61.3906 153.359 62.0612 153.242 62.8164C153.138 63.5586 153.086 64.3398 153.086 65.1602V65.7266C153.086 66.5469 153.138 67.3346 153.242 68.0898C153.346 68.8451 153.542 69.5156 153.828 70.1016C154.128 70.6875 154.538 71.1497 155.059 71.4883C155.579 71.8268 156.257 71.9961 157.09 71.9961ZM201.621 71.3906V46H207.285V76H202.188L201.621 71.3906ZM188.262 65.6875V65.2773C188.262 63.6628 188.444 62.1979 188.809 60.8828C189.173 59.5547 189.707 58.4154 190.41 57.4648C191.113 56.5143 191.979 55.7786 193.008 55.2578C194.036 54.737 195.208 54.4766 196.523 54.4766C197.76 54.4766 198.841 54.737 199.766 55.2578C200.703 55.7786 201.497 56.5208 202.148 57.4844C202.812 58.4349 203.346 59.5612 203.75 60.8633C204.154 62.1523 204.447 63.5651 204.629 65.1016V66C204.447 67.4714 204.154 68.8385 203.75 70.1016C203.346 71.3646 202.812 72.4714 202.148 73.4219C201.497 74.3594 200.703 75.0885 199.766 75.6094C198.828 76.1302 197.734 76.3906 196.484 76.3906C195.169 76.3906 193.997 76.1237 192.969 75.5898C191.953 75.056 191.094 74.3073 190.391 73.3438C189.701 72.3802 189.173 71.2474 188.809 69.9453C188.444 68.6432 188.262 67.224 188.262 65.6875ZM193.887 65.2773V65.6875C193.887 66.5599 193.952 67.3737 194.082 68.1289C194.225 68.8841 194.453 69.5547 194.766 70.1406C195.091 70.7135 195.508 71.1628 196.016 71.4883C196.536 71.8008 197.168 71.957 197.91 71.957C198.874 71.957 199.668 71.7422 200.293 71.3125C200.918 70.8698 201.393 70.2643 201.719 69.4961C202.057 68.7279 202.253 67.8424 202.305 66.8398V64.2812C202.266 63.4609 202.148 62.7253 201.953 62.0742C201.771 61.4102 201.497 60.8438 201.133 60.375C200.781 59.9062 200.339 59.5417 199.805 59.2812C199.284 59.0208 198.665 58.8906 197.949 58.8906C197.22 58.8906 196.595 59.0599 196.074 59.3984C195.553 59.724 195.13 60.1732 194.805 60.7461C194.492 61.319 194.258 61.9961 194.102 62.7773C193.958 63.5456 193.887 64.3789 193.887 65.2773ZM221.406 76.3906C219.766 76.3906 218.294 76.1302 216.992 75.6094C215.69 75.0755 214.583 74.3398 213.672 73.4023C212.773 72.4648 212.083 71.3776 211.602 70.1406C211.12 68.8906 210.879 67.5625 210.879 66.1562V65.375C210.879 63.7734 211.107 62.3086 211.562 60.9805C212.018 59.6523 212.669 58.5 213.516 57.5234C214.375 56.5469 215.417 55.7982 216.641 55.2773C217.865 54.7435 219.245 54.4766 220.781 54.4766C222.279 54.4766 223.607 54.724 224.766 55.2188C225.924 55.7135 226.895 56.4167 227.676 57.3281C228.47 58.2396 229.069 59.3333 229.473 60.6094C229.876 61.8724 230.078 63.2786 230.078 64.8281V67.1719H213.281V63.4219H224.551V62.9922C224.551 62.2109 224.408 61.5143 224.121 60.9023C223.848 60.2773 223.431 59.7826 222.871 59.418C222.311 59.0534 221.595 58.8711 220.723 58.8711C219.98 58.8711 219.342 59.0339 218.809 59.3594C218.275 59.6849 217.839 60.1406 217.5 60.7266C217.174 61.3125 216.927 62.0026 216.758 62.7969C216.602 63.5781 216.523 64.4375 216.523 65.375V66.1562C216.523 67.0026 216.641 67.7839 216.875 68.5C217.122 69.2161 217.467 69.8346 217.91 70.3555C218.366 70.8763 218.913 71.2799 219.551 71.5664C220.202 71.8529 220.938 71.9961 221.758 71.9961C222.773 71.9961 223.717 71.8008 224.59 71.4102C225.475 71.0065 226.237 70.401 226.875 69.5938L229.609 72.5625C229.167 73.2005 228.561 73.8125 227.793 74.3984C227.038 74.9844 226.126 75.4661 225.059 75.8438C223.991 76.2083 222.773 76.3906 221.406 76.3906ZM238.789 59.3789V76H233.164V54.8672H238.438L238.789 59.3789ZM237.969 64.6914H236.445C236.445 63.1289 236.647 61.7227 237.051 60.4727C237.454 59.2096 238.021 58.1354 238.75 57.25C239.479 56.3516 240.345 55.668 241.348 55.1992C242.363 54.7174 243.496 54.4766 244.746 54.4766C245.736 54.4766 246.641 54.6198 247.461 54.9062C248.281 55.1927 248.984 55.6484 249.57 56.2734C250.169 56.8984 250.625 57.7253 250.938 58.7539C251.263 59.7826 251.426 61.0391 251.426 62.5234V76H245.762V62.5039C245.762 61.5664 245.632 60.8372 245.371 60.3164C245.111 59.7956 244.727 59.431 244.219 59.2227C243.724 59.0013 243.112 58.8906 242.383 58.8906C241.628 58.8906 240.97 59.0404 240.41 59.3398C239.863 59.6393 239.408 60.056 239.043 60.5898C238.691 61.1107 238.424 61.7227 238.242 62.4258C238.06 63.1289 237.969 63.8841 237.969 64.6914Z" fill="black"/>
</g>
<defs>
<filter id="filter0_d_11_34" x="0.550781" y="0.5625" width="254.875" height="91.7578" filterUnits="userSpaceOnUse" color-interpolation-filters="sRGB">
<feFlood flood-opacity="0" result="BackgroundImageFix"/>
<feColorMatrix in="SourceAlpha" type="matrix" values="0 0 0 0 0 0 0 0 0 0 0 0 0 0 0 0 0 0 127 0" result="hardAlpha"/>
<feOffset dy="4"/>
<feGaussianBlur stdDeviation="2"/>
<feComposite in2="hardAlpha" operator="out"/>
<feColorMatrix type="matrix" values="0 0 0 0 0 0 0 0 0 0 0 0 0 0 0 0 0 0 0.25 0"/>
<feBlend mode="normal" in2="BackgroundImageFix" result="effect1_dropShadow_11_34"/>
<feBlend mode="normal" in="SourceGraphic" in2="effect1_dropShadow_11_34" result="shape"/>
</filter>
</defs>
</svg>
