<svg width="263" height="93" viewBox="0 0 263 93" fill="none" xmlns="http://www.w3.org/2000/svg">
<g filter="url(#filter0_d_11_34)">
<path d="M7.97266 0.5625V29H4.20312V0.5625H7.97266ZM25.4922 0.5625L13.1484 16.207H6.46875L5.88281 13.082H10.9023L20.8242 0.5625H25.4922ZM21.7031 29L11.0195 15.7188L13.1289 12.418L26.3125 29H21.7031ZM27.6797 18.668V18.2188C27.6797 16.6953 27.901 15.2826 28.3438 13.9805C28.7865 12.6654 29.4245 11.526 30.2578 10.5625C31.0911 9.58594 32.1003 8.83073 33.2852 8.29688C34.4701 7.75 35.7982 7.47656 37.2695 7.47656C38.7539 7.47656 40.0885 7.75 41.2734 8.29688C42.4714 8.83073 43.487 9.58594 44.3203 10.5625C45.1667 11.526 45.8112 12.6654 46.2539 13.9805C46.6966 15.2826 46.918 16.6953 46.918 18.2188V18.668C46.918 20.1914 46.6966 21.6042 46.2539 22.9062C45.8112 24.2083 45.1667 25.3477 44.3203 26.3242C43.487 27.2878 42.4779 28.043 41.293 28.5898C40.1211 29.1237 38.793 29.3906 37.3086 29.3906C35.8242 29.3906 34.4896 29.1237 33.3047 28.5898C32.1198 28.043 31.1042 27.2878 30.2578 26.3242C29.4245 25.3477 28.7865 24.2083 28.3438 22.9062C27.901 21.6042 27.6797 20.1914 27.6797 18.668ZM31.293 18.2188V18.668C31.293 19.7227 31.4167 20.7188 31.6641 21.6562C31.9115 22.5807 32.2826 23.401 32.7773 24.1172C33.2852 24.8333 33.9167 25.3997 34.6719 25.8164C35.4271 26.2201 36.306 26.4219 37.3086 26.4219C38.2982 26.4219 39.1641 26.2201 39.9062 25.8164C40.6615 25.3997 41.2865 24.8333 41.7812 24.1172C42.276 23.401 42.6471 22.5807 42.8945 21.6562C43.1549 20.7188 43.2852 19.7227 43.2852 18.668V18.2188C43.2852 17.1771 43.1549 16.194 42.8945 15.2695C42.6471 14.332 42.2695 13.5052 41.7617 12.7891C41.2669 12.0599 40.6419 11.487 39.8867 11.0703C39.1445 10.6536 38.2721 10.4453 37.2695 10.4453C36.2799 10.4453 35.4076 10.6536 34.6523 11.0703C33.9102 11.487 33.2852 12.0599 32.7773 12.7891C32.2826 13.5052 31.9115 14.332 31.6641 15.2695C31.4167 16.194 31.293 17.1771 31.293 18.2188ZM65.2578 7.86719V10.8555H55.043V7.86719H65.2578ZM68.4414 7.86719V29H64.8281V7.86719H68.4414ZM54.1641 7.86719H57.7969L57.25 18.0625C57.1589 19.638 57.0091 21.0312 56.8008 22.2422C56.6055 23.4401 56.332 24.4688 55.9805 25.3281C55.6419 26.1875 55.2122 26.8906 54.6914 27.4375C54.1836 27.9714 53.5716 28.3685 52.8555 28.6289C52.1393 28.8763 51.3125 29 50.375 29H49.2422V25.8164L50.0234 25.7578C50.5833 25.7188 51.0586 25.5885 51.4492 25.3672C51.8529 25.1458 52.1914 24.8203 52.4648 24.3906C52.7383 23.9479 52.9596 23.3815 53.1289 22.6914C53.3112 22.0013 53.4479 21.181 53.5391 20.2305C53.6432 19.2799 53.7214 18.1732 53.7734 16.9102L54.1641 7.86719ZM88.3828 7.86719V10.8555H78.168V7.86719H88.3828ZM91.5664 7.86719V29H87.9531V7.86719H91.5664ZM77.2891 7.86719H80.9219L80.375 18.0625C80.2839 19.638 80.1341 21.0312 79.9258 22.2422C79.7305 23.4401 79.457 24.4688 79.1055 25.3281C78.7669 26.1875 78.3372 26.8906 77.8164 27.4375C77.3086 27.9714 76.6966 28.3685 75.9805 28.6289C75.2643 28.8763 74.4375 29 73.5 29H72.3672V25.8164L73.1484 25.7578C73.7083 25.7188 74.1836 25.5885 74.5742 25.3672C74.9779 25.1458 75.3164 24.8203 75.5898 24.3906C75.8633 23.9479 76.0846 23.3815 76.2539 22.6914C76.4362 22.0013 76.5729 21.181 76.6641 20.2305C76.7682 19.2799 76.8464 18.1732 76.8984 16.9102L77.2891 7.86719ZM106.156 29.3906C104.685 29.3906 103.35 29.1432 102.152 28.6484C100.967 28.1406 99.9453 27.431 99.0859 26.5195C98.2396 25.6081 97.5885 24.5273 97.1328 23.2773C96.6771 22.0273 96.4492 20.6602 96.4492 19.1758V18.3555C96.4492 16.6367 96.7031 15.1068 97.2109 13.7656C97.7188 12.4115 98.4089 11.2656 99.2812 10.3281C100.154 9.39062 101.143 8.68099 102.25 8.19922C103.357 7.71745 104.503 7.47656 105.688 7.47656C107.198 7.47656 108.5 7.73698 109.594 8.25781C110.701 8.77865 111.605 9.50781 112.309 10.4453C113.012 11.3698 113.533 12.4635 113.871 13.7266C114.21 14.9766 114.379 16.3438 114.379 17.8281V19.4492H98.5977V16.5H110.766V16.2266C110.714 15.2891 110.518 14.3776 110.18 13.4922C109.854 12.6068 109.333 11.8776 108.617 11.3047C107.901 10.7318 106.924 10.4453 105.688 10.4453C104.867 10.4453 104.112 10.6211 103.422 10.9727C102.732 11.3112 102.139 11.819 101.645 12.4961C101.15 13.1732 100.766 14 100.492 14.9766C100.219 15.9531 100.082 17.0794 100.082 18.3555V19.1758C100.082 20.1784 100.219 21.1224 100.492 22.0078C100.779 22.8802 101.189 23.6484 101.723 24.3125C102.27 24.9766 102.927 25.4974 103.695 25.875C104.477 26.2526 105.362 26.4414 106.352 26.4414C107.628 26.4414 108.708 26.181 109.594 25.6602C110.479 25.1393 111.254 24.4427 111.918 23.5703L114.105 25.3086C113.65 25.9987 113.07 26.6562 112.367 27.2812C111.664 27.9062 110.798 28.4141 109.77 28.8047C108.754 29.1953 107.549 29.3906 106.156 29.3906ZM122.523 7.86719V29H118.91V7.86719H122.523ZM136.391 7.86719L126.371 19.9766H121.312L120.766 16.8125H124.906L131.996 7.86719H136.391ZM132.504 29L124.73 19.4297L127.055 16.8125L137.094 29H132.504ZM140.551 29V7.86719H144.164V26.0312H153.891V7.86719H157.523V29H140.551ZM160.023 26.0312L159.672 35.2695H156.449V29H153.695V26.0312H160.023ZM167.855 23.2773L177.602 7.86719H181.234V29H177.602V13.5898L167.855 29H164.262V7.86719H167.855V23.2773ZM191.312 18.9219H195.219L189.105 29H185.199L191.312 18.9219ZM194.34 7.86719H203.168V29H199.555V10.7969H194.34C193.311 10.7969 192.471 10.9727 191.82 11.3242C191.169 11.6628 190.694 12.1055 190.395 12.6523C190.095 13.1992 189.945 13.7656 189.945 14.3516C189.945 14.9245 190.082 15.4779 190.355 16.0117C190.629 16.5326 191.059 16.9622 191.645 17.3008C192.23 17.6393 192.986 17.8086 193.91 17.8086H200.531V20.7773H193.91C192.699 20.7773 191.625 20.6146 190.688 20.2891C189.75 19.9635 188.956 19.5143 188.305 18.9414C187.654 18.3555 187.159 17.6719 186.82 16.8906C186.482 16.0964 186.312 15.237 186.312 14.3125C186.312 13.388 186.488 12.5352 186.84 11.7539C187.204 10.9727 187.725 10.2891 188.402 9.70312C189.092 9.11719 189.932 8.66797 190.922 8.35547C191.924 8.02995 193.064 7.86719 194.34 7.86719ZM233.246 17.0273V19.957H222.074V17.0273H233.246ZM222.836 7.86719V29H219.223V7.86719H222.836ZM236.176 7.86719V29H232.543V7.86719H236.176ZM254.457 25.3867V14.5078C254.457 13.6745 254.288 12.9518 253.949 12.3398C253.624 11.7148 253.129 11.2331 252.465 10.8945C251.801 10.556 250.98 10.3867 250.004 10.3867C249.092 10.3867 248.292 10.543 247.602 10.8555C246.924 11.168 246.391 11.5781 246 12.0859C245.622 12.5938 245.434 13.1406 245.434 13.7266H241.82C241.82 12.9714 242.016 12.2227 242.406 11.4805C242.797 10.7383 243.357 10.0677 244.086 9.46875C244.828 8.85677 245.714 8.375 246.742 8.02344C247.784 7.65885 248.943 7.47656 250.219 7.47656C251.755 7.47656 253.109 7.73698 254.281 8.25781C255.466 8.77865 256.391 9.56641 257.055 10.6211C257.732 11.6628 258.07 12.9714 258.07 14.5469V24.3906C258.07 25.0938 258.129 25.8424 258.246 26.6367C258.376 27.431 258.565 28.1146 258.812 28.6875V29H255.043C254.861 28.5833 254.717 28.0299 254.613 27.3398C254.509 26.6367 254.457 25.9857 254.457 25.3867ZM255.082 16.1875L255.121 18.7266H251.469C250.44 18.7266 249.522 18.8112 248.715 18.9805C247.908 19.1367 247.23 19.3776 246.684 19.7031C246.137 20.0286 245.72 20.4388 245.434 20.9336C245.147 21.4154 245.004 21.9818 245.004 22.6328C245.004 23.2969 245.154 23.9023 245.453 24.4492C245.753 24.9961 246.202 25.4323 246.801 25.7578C247.413 26.0703 248.161 26.2266 249.047 26.2266C250.154 26.2266 251.13 25.9922 251.977 25.5234C252.823 25.0547 253.493 24.4818 253.988 23.8047C254.496 23.1276 254.77 22.4701 254.809 21.832L256.352 23.5703C256.26 24.1172 256.013 24.7227 255.609 25.3867C255.206 26.0508 254.665 26.6888 253.988 27.3008C253.324 27.8997 252.53 28.401 251.605 28.8047C250.694 29.1953 249.665 29.3906 248.52 29.3906C247.087 29.3906 245.831 29.1107 244.75 28.5508C243.682 27.9909 242.849 27.2422 242.25 26.3047C241.664 25.3542 241.371 24.293 241.371 23.1211C241.371 21.9883 241.592 20.9922 242.035 20.1328C242.478 19.2604 243.116 18.5378 243.949 17.9648C244.783 17.3789 245.785 16.9362 246.957 16.6367C248.129 16.3372 249.438 16.1875 250.883 16.1875H255.082ZM68.9883 47.5625H73.9492L81.2539 68.4414L88.5586 47.5625H93.5195L83.2461 76H79.2617L68.9883 47.5625ZM66.3125 47.5625H71.2539L72.1523 67.9141V76H66.3125V47.5625ZM91.2539 47.5625H96.2148V76H90.3555V67.9141L91.2539 47.5625ZM112.406 71.2344V61.8203C112.406 61.1432 112.296 60.5638 112.074 60.082C111.853 59.5872 111.508 59.2031 111.039 58.9297C110.583 58.6562 109.991 58.5195 109.262 58.5195C108.637 58.5195 108.096 58.6302 107.641 58.8516C107.185 59.0599 106.833 59.3659 106.586 59.7695C106.339 60.1602 106.215 60.6224 106.215 61.1562H100.59C100.59 60.2578 100.798 59.4049 101.215 58.5977C101.632 57.7904 102.237 57.0807 103.031 56.4688C103.826 55.8438 104.77 55.3555 105.863 55.0039C106.97 54.6523 108.207 54.4766 109.574 54.4766C111.215 54.4766 112.673 54.75 113.949 55.2969C115.225 55.8438 116.228 56.6641 116.957 57.7578C117.699 58.8516 118.07 60.2188 118.07 61.8594V70.9023C118.07 72.0612 118.142 73.0117 118.285 73.7539C118.428 74.4831 118.637 75.1211 118.91 75.668V76H113.227C112.953 75.4271 112.745 74.7109 112.602 73.8516C112.471 72.9792 112.406 72.1068 112.406 71.2344ZM113.148 63.1289L113.188 66.3125H110.043C109.301 66.3125 108.656 66.3971 108.109 66.5664C107.562 66.7357 107.113 66.9766 106.762 67.2891C106.41 67.5885 106.15 67.9401 105.98 68.3438C105.824 68.7474 105.746 69.1901 105.746 69.6719C105.746 70.1536 105.857 70.5898 106.078 70.9805C106.299 71.3581 106.618 71.6576 107.035 71.8789C107.452 72.0872 107.94 72.1914 108.5 72.1914C109.346 72.1914 110.082 72.0221 110.707 71.6836C111.332 71.3451 111.814 70.9284 112.152 70.4336C112.504 69.9388 112.686 69.4701 112.699 69.0273L114.184 71.4102C113.975 71.944 113.689 72.4974 113.324 73.0703C112.973 73.6432 112.523 74.1836 111.977 74.6914C111.43 75.1862 110.772 75.5964 110.004 75.9219C109.236 76.2344 108.324 76.3906 107.27 76.3906C105.928 76.3906 104.711 76.1237 103.617 75.5898C102.536 75.043 101.677 74.2943 101.039 73.3438C100.414 72.3802 100.102 71.2865 100.102 70.0625C100.102 68.9557 100.31 67.9727 100.727 67.1133C101.143 66.2539 101.755 65.5312 102.562 64.9453C103.383 64.3464 104.405 63.8971 105.629 63.5977C106.853 63.2852 108.272 63.1289 109.887 63.1289H113.148ZM135.785 54.8672H140.883V75.2969C140.883 77.224 140.453 78.8581 139.594 80.1992C138.747 81.5534 137.562 82.5755 136.039 83.2656C134.516 83.9688 132.745 84.3203 130.727 84.3203C129.841 84.3203 128.904 84.2031 127.914 83.9688C126.938 83.7344 126 83.3698 125.102 82.875C124.216 82.3802 123.474 81.7552 122.875 81L125.355 77.6797C126.007 78.4349 126.762 79.0208 127.621 79.4375C128.48 79.8672 129.431 80.082 130.473 80.082C131.488 80.082 132.348 79.8932 133.051 79.5156C133.754 79.151 134.294 78.6107 134.672 77.8945C135.049 77.1914 135.238 76.3385 135.238 75.3359V59.75L135.785 54.8672ZM121.566 65.6875V65.2773C121.566 63.6628 121.762 62.1979 122.152 60.8828C122.556 59.5547 123.122 58.4154 123.852 57.4648C124.594 56.5143 125.492 55.7786 126.547 55.2578C127.602 54.737 128.793 54.4766 130.121 54.4766C131.527 54.4766 132.706 54.737 133.656 55.2578C134.607 55.7786 135.388 56.5208 136 57.4844C136.612 58.4349 137.087 59.5612 137.426 60.8633C137.777 62.1523 138.051 63.5651 138.246 65.1016V66C138.051 67.4714 137.758 68.8385 137.367 70.1016C136.977 71.3646 136.462 72.4714 135.824 73.4219C135.186 74.3594 134.392 75.0885 133.441 75.6094C132.504 76.1302 131.384 76.3906 130.082 76.3906C128.78 76.3906 127.602 76.1237 126.547 75.5898C125.505 75.056 124.613 74.3073 123.871 73.3438C123.129 72.3802 122.556 71.2474 122.152 69.9453C121.762 68.6432 121.566 67.224 121.566 65.6875ZM127.191 65.2773V65.6875C127.191 66.5599 127.276 67.3737 127.445 68.1289C127.615 68.8841 127.875 69.5547 128.227 70.1406C128.591 70.7135 129.04 71.1628 129.574 71.4883C130.121 71.8008 130.766 71.957 131.508 71.957C132.536 71.957 133.376 71.7422 134.027 71.3125C134.678 70.8698 135.167 70.2643 135.492 69.4961C135.818 68.7279 136.007 67.8424 136.059 66.8398V64.2812C136.033 63.4609 135.922 62.7253 135.727 62.0742C135.531 61.4102 135.258 60.8438 134.906 60.375C134.555 59.9062 134.099 59.5417 133.539 59.2812C132.979 59.0208 132.315 58.8906 131.547 58.8906C130.805 58.8906 130.16 59.0599 129.613 59.3984C129.079 59.724 128.63 60.1732 128.266 60.7461C127.914 61.319 127.647 61.9961 127.465 62.7773C127.283 63.5456 127.191 64.3789 127.191 65.2773ZM151.195 54.8672V76H145.551V54.8672H151.195ZM145.199 49.3594C145.199 48.5391 145.486 47.862 146.059 47.3281C146.632 46.7943 147.4 46.5273 148.363 46.5273C149.314 46.5273 150.076 46.7943 150.648 47.3281C151.234 47.862 151.527 48.5391 151.527 49.3594C151.527 50.1797 151.234 50.8568 150.648 51.3906C150.076 51.9245 149.314 52.1914 148.363 52.1914C147.4 52.1914 146.632 51.9245 146.059 51.3906C145.486 50.8568 145.199 50.1797 145.199 49.3594ZM164.574 71.9961C165.264 71.9961 165.876 71.8659 166.41 71.6055C166.944 71.332 167.361 70.9544 167.66 70.4727C167.973 69.9779 168.135 69.3984 168.148 68.7344H173.441C173.428 70.2188 173.031 71.5404 172.25 72.6992C171.469 73.8451 170.421 74.75 169.105 75.4141C167.79 76.0651 166.319 76.3906 164.691 76.3906C163.051 76.3906 161.618 76.1172 160.395 75.5703C159.184 75.0234 158.174 74.2682 157.367 73.3047C156.56 72.3281 155.954 71.1953 155.551 69.9062C155.147 68.6042 154.945 67.2109 154.945 65.7266V65.1602C154.945 63.6628 155.147 62.2695 155.551 60.9805C155.954 59.6784 156.56 58.5456 157.367 57.582C158.174 56.6055 159.184 55.8438 160.395 55.2969C161.605 54.75 163.025 54.4766 164.652 54.4766C166.384 54.4766 167.901 54.8086 169.203 55.4727C170.518 56.1367 171.547 57.0872 172.289 58.3242C173.044 59.5482 173.428 61 173.441 62.6797H168.148C168.135 61.9766 167.986 61.3385 167.699 60.7656C167.426 60.1927 167.022 59.737 166.488 59.3984C165.967 59.0469 165.323 58.8711 164.555 58.8711C163.734 58.8711 163.064 59.0469 162.543 59.3984C162.022 59.737 161.618 60.2057 161.332 60.8047C161.046 61.3906 160.844 62.0612 160.727 62.8164C160.622 63.5586 160.57 64.3398 160.57 65.1602V65.7266C160.57 66.5469 160.622 67.3346 160.727 68.0898C160.831 68.8451 161.026 69.5156 161.312 70.1016C161.612 70.6875 162.022 71.1497 162.543 71.4883C163.064 71.8268 163.741 71.9961 164.574 71.9961ZM209.105 71.3906V46H214.77V76H209.672L209.105 71.3906ZM195.746 65.6875V65.2773C195.746 63.6628 195.928 62.1979 196.293 60.8828C196.658 59.5547 197.191 58.4154 197.895 57.4648C198.598 56.5143 199.464 55.7786 200.492 55.2578C201.521 54.737 202.693 54.4766 204.008 54.4766C205.245 54.4766 206.326 54.737 207.25 55.2578C208.188 55.7786 208.982 56.5208 209.633 57.4844C210.297 58.4349 210.831 59.5612 211.234 60.8633C211.638 62.1523 211.931 63.5651 212.113 65.1016V66C211.931 67.4714 211.638 68.8385 211.234 70.1016C210.831 71.3646 210.297 72.4714 209.633 73.4219C208.982 74.3594 208.188 75.0885 207.25 75.6094C206.312 76.1302 205.219 76.3906 203.969 76.3906C202.654 76.3906 201.482 76.1237 200.453 75.5898C199.438 75.056 198.578 74.3073 197.875 73.3438C197.185 72.3802 196.658 71.2474 196.293 69.9453C195.928 68.6432 195.746 67.224 195.746 65.6875ZM201.371 65.2773V65.6875C201.371 66.5599 201.436 67.3737 201.566 68.1289C201.71 68.8841 201.938 69.5547 202.25 70.1406C202.576 70.7135 202.992 71.1628 203.5 71.4883C204.021 71.8008 204.652 71.957 205.395 71.957C206.358 71.957 207.152 71.7422 207.777 71.3125C208.402 70.8698 208.878 70.2643 209.203 69.4961C209.542 68.7279 209.737 67.8424 209.789 66.8398V64.2812C209.75 63.4609 209.633 62.7253 209.438 62.0742C209.255 61.4102 208.982 60.8438 208.617 60.375C208.266 59.9062 207.823 59.5417 207.289 59.2812C206.768 59.0208 206.15 58.8906 205.434 58.8906C204.704 58.8906 204.079 59.0599 203.559 59.3984C203.038 59.724 202.615 60.1732 202.289 60.7461C201.977 61.319 201.742 61.9961 201.586 62.7773C201.443 63.5456 201.371 64.3789 201.371 65.2773ZM228.891 76.3906C227.25 76.3906 225.779 76.1302 224.477 75.6094C223.174 75.0755 222.068 74.3398 221.156 73.4023C220.258 72.4648 219.568 71.3776 219.086 70.1406C218.604 68.8906 218.363 67.5625 218.363 66.1562V65.375C218.363 63.7734 218.591 62.3086 219.047 60.9805C219.503 59.6523 220.154 58.5 221 57.5234C221.859 56.5469 222.901 55.7982 224.125 55.2773C225.349 54.7435 226.729 54.4766 228.266 54.4766C229.763 54.4766 231.091 54.724 232.25 55.2188C233.409 55.7135 234.379 56.4167 235.16 57.3281C235.954 58.2396 236.553 59.3333 236.957 60.6094C237.361 61.8724 237.562 63.2786 237.562 64.8281V67.1719H220.766V63.4219H232.035V62.9922C232.035 62.2109 231.892 61.5143 231.605 60.9023C231.332 60.2773 230.915 59.7826 230.355 59.418C229.796 59.0534 229.079 58.8711 228.207 58.8711C227.465 58.8711 226.827 59.0339 226.293 59.3594C225.759 59.6849 225.323 60.1406 224.984 60.7266C224.659 61.3125 224.411 62.0026 224.242 62.7969C224.086 63.5781 224.008 64.4375 224.008 65.375V66.1562C224.008 67.0026 224.125 67.7839 224.359 68.5C224.607 69.2161 224.952 69.8346 225.395 70.3555C225.85 70.8763 226.397 71.2799 227.035 71.5664C227.686 71.8529 228.422 71.9961 229.242 71.9961C230.258 71.9961 231.202 71.8008 232.074 71.4102C232.96 71.0065 233.721 70.401 234.359 69.5938L237.094 72.5625C236.651 73.2005 236.046 73.8125 235.277 74.3984C234.522 74.9844 233.611 75.4661 232.543 75.8438C231.475 76.2083 230.258 76.3906 228.891 76.3906ZM246.273 59.3789V76H240.648V54.8672H245.922L246.273 59.3789ZM245.453 64.6914H243.93C243.93 63.1289 244.132 61.7227 244.535 60.4727C244.939 59.2096 245.505 58.1354 246.234 57.25C246.964 56.3516 247.829 55.668 248.832 55.1992C249.848 54.7174 250.98 54.4766 252.23 54.4766C253.22 54.4766 254.125 54.6198 254.945 54.9062C255.766 55.1927 256.469 55.6484 257.055 56.2734C257.654 56.8984 258.109 57.7253 258.422 58.7539C258.747 59.7826 258.91 61.0391 258.91 62.5234V76H253.246V62.5039C253.246 61.5664 253.116 60.8372 252.855 60.3164C252.595 59.7956 252.211 59.431 251.703 59.2227C251.208 59.0013 250.596 58.8906 249.867 58.8906C249.112 58.8906 248.454 59.0404 247.895 59.3398C247.348 59.6393 246.892 60.056 246.527 60.5898C246.176 61.1107 245.909 61.7227 245.727 62.4258C245.544 63.1289 245.453 63.8841 245.453 64.6914Z" fill="black"/>
</g>
<defs>
<filter id="filter0_d_11_34" x="0.203125" y="0.5625" width="262.707" height="91.7578" filterUnits="userSpaceOnUse" color-interpolation-filters="sRGB">
<feFlood flood-opacity="0" result="BackgroundImageFix"/>
<feColorMatrix in="SourceAlpha" type="matrix" values="0 0 0 0 0 0 0 0 0 0 0 0 0 0 0 0 0 0 127 0" result="hardAlpha"/>
<feOffset dy="4"/>
<feGaussianBlur stdDeviation="2"/>
<feComposite in2="hardAlpha" operator="out"/>
<feColorMatrix type="matrix" values="0 0 0 0 0 0 0 0 0 0 0 0 0 0 0 0 0 0 0.25 0"/>
<feBlend mode="normal" in2="BackgroundImageFix" result="effect1_dropShadow_11_34"/>
<feBlend mode="normal" in="SourceGraphic" in2="effect1_dropShadow_11_34" result="shape"/>
</filter>
</defs>
</svg>
